# xmcd
#
# Track frame offsets: 
#        150
#        20128
#        37611
#        57877
#        76952
#        98295
#        116349
#        134382
#        151223
#        168889
#
# Disc length: 2692 seconds
#
# Revision: 0
# Processed by: cddbd v1.5.1PL0 Copyright (c) Steve Scherf et al.
# Submitted via: ExactAudioCopy v0.95a5
#
DISCID=660a820a
DTITLE=李泉 - 2046
DYEAR=2003
DGENRE=Pop
TTITLE0=花花大世界
TTITLE1=雪白 血红
TTITLE2=流浪狗
TTITLE3=这个杀手不太冷
TTITLE4=Spring Ecstasy
TTITLE5=二零四六
TTITLE6=爱是有故事的旅行
TTITLE7=城市的味道
TTITLE8=我的人哪，你在哪儿啊！
TTITLE9=德乐[演奏版]
EXTD=
EXTT0=
EXTT1=
EXTT2=
EXTT3=
EXTT4=
EXTT5=
EXTT6=
EXTT7=
EXTT8=
EXTT9=
PLAYORDER=
